<mxfile host="65bd71144e" modified="2020-12-13T00:02:19.061Z" agent="5.0 (X11; Linux x86_64) AppleWebKit/537.36 (KHTML, like Gecko) Code/1.51.1 Chrome/83.0.4103.122 Electron/9.3.3 Safari/537.36" version="13.10.0" etag="hsj9QBWg31NPy6jQ9fj7" type="embed">
    <diagram id="kRDuzu7ikWpmD-jeQDag" name="PÃ¡gina-1">
        <mxGraphModel dx="824" dy="468" grid="1" gridSize="10" guides="1" tooltips="1" connect="1" arrows="1" fold="1" page="1" pageScale="1" pageWidth="827" pageHeight="1169" math="0" shadow="0">
            <root>
                <mxCell id="0"/>
                <mxCell id="1" parent="0"/>
                <mxCell id="FerQvgeqPSbu73l90yjI-8" value="" style="verticalLabelPosition=bottom;dashed=0;shadow=0;html=1;align=center;verticalAlign=top;shape=mxgraph.cabinets.cb_2p;" vertex="1" parent="1">
                    <mxGeometry x="86" y="190" width="68" height="230" as="geometry"/>
                </mxCell>
                <mxCell id="FerQvgeqPSbu73l90yjI-10" value="" style="verticalLabelPosition=bottom;dashed=0;shadow=0;html=1;align=center;verticalAlign=top;shape=mxgraph.cabinets.cb_2p;" vertex="1" parent="1">
                    <mxGeometry x="240" y="190" width="68" height="230" as="geometry"/>
                </mxCell>
                <mxCell id="FerQvgeqPSbu73l90yjI-11" value="" style="verticalLabelPosition=bottom;dashed=0;shadow=0;html=1;align=center;verticalAlign=top;shape=mxgraph.cabinets.cb_2p;" vertex="1" parent="1">
                    <mxGeometry x="380" y="190" width="68" height="230" as="geometry"/>
                </mxCell>
                <mxCell id="FerQvgeqPSbu73l90yjI-12" value="" style="verticalLabelPosition=bottom;dashed=0;shadow=0;html=1;align=center;verticalAlign=top;shape=mxgraph.cabinets.cb_2p;" vertex="1" parent="1">
                    <mxGeometry x="536" y="190" width="68" height="230" as="geometry"/>
                </mxCell>
                <mxCell id="FerQvgeqPSbu73l90yjI-13" value="" style="verticalLabelPosition=bottom;dashed=0;shadow=0;html=1;align=center;verticalAlign=top;shape=mxgraph.cabinets.cb_2p;" vertex="1" parent="1">
                    <mxGeometry x="686" y="190" width="68" height="230" as="geometry"/>
                </mxCell>
                <mxCell id="FerQvgeqPSbu73l90yjI-17" value="RIGHT" style="text;html=1;strokeColor=none;fillColor=none;align=center;verticalAlign=middle;whiteSpace=wrap;rounded=0;" vertex="1" parent="1">
                    <mxGeometry x="100" y="260" width="40" height="20" as="geometry"/>
                </mxCell>
                <mxCell id="FerQvgeqPSbu73l90yjI-18" value="LEFT" style="text;html=1;strokeColor=none;fillColor=none;align=center;verticalAlign=middle;whiteSpace=wrap;rounded=0;" vertex="1" parent="1">
                    <mxGeometry x="254" y="260" width="40" height="20" as="geometry"/>
                </mxCell>
                <mxCell id="FerQvgeqPSbu73l90yjI-19" value="LEFT" style="text;html=1;strokeColor=none;fillColor=none;align=center;verticalAlign=middle;whiteSpace=wrap;rounded=0;" vertex="1" parent="1">
                    <mxGeometry x="550" y="260" width="40" height="20" as="geometry"/>
                </mxCell>
                <mxCell id="FerQvgeqPSbu73l90yjI-20" value="RIGHT" style="text;html=1;strokeColor=none;fillColor=none;align=center;verticalAlign=middle;whiteSpace=wrap;rounded=0;" vertex="1" parent="1">
                    <mxGeometry x="394" y="260" width="40" height="20" as="geometry"/>
                </mxCell>
                <mxCell id="FerQvgeqPSbu73l90yjI-21" value="HOME" style="text;html=1;strokeColor=none;fillColor=none;align=center;verticalAlign=middle;whiteSpace=wrap;rounded=0;" vertex="1" parent="1">
                    <mxGeometry x="700" y="260" width="40" height="20" as="geometry"/>
                </mxCell>
                <mxCell id="FerQvgeqPSbu73l90yjI-24" value="IN" style="text;html=1;strokeColor=none;fillColor=none;align=center;verticalAlign=middle;whiteSpace=wrap;rounded=0;" vertex="1" parent="1">
                    <mxGeometry x="97" y="330" width="16" height="20" as="geometry"/>
                </mxCell>
                <mxCell id="FerQvgeqPSbu73l90yjI-25" value="IN" style="text;html=1;strokeColor=none;fillColor=none;align=center;verticalAlign=middle;whiteSpace=wrap;rounded=0;" vertex="1" parent="1">
                    <mxGeometry x="129" y="330" width="16" height="20" as="geometry"/>
                </mxCell>
                <mxCell id="FerQvgeqPSbu73l90yjI-26" value="IN" style="text;html=1;strokeColor=none;fillColor=none;align=center;verticalAlign=middle;whiteSpace=wrap;rounded=0;" vertex="1" parent="1">
                    <mxGeometry x="282" y="330" width="16" height="20" as="geometry"/>
                </mxCell>
                <mxCell id="FerQvgeqPSbu73l90yjI-27" value="IN" style="text;html=1;strokeColor=none;fillColor=none;align=center;verticalAlign=middle;whiteSpace=wrap;rounded=0;" vertex="1" parent="1">
                    <mxGeometry x="250" y="330" width="16" height="20" as="geometry"/>
                </mxCell>
                <mxCell id="FerQvgeqPSbu73l90yjI-28" value="OUT" style="text;html=1;strokeColor=none;fillColor=none;align=center;verticalAlign=middle;whiteSpace=wrap;rounded=0;" vertex="1" parent="1">
                    <mxGeometry x="422" y="330" width="16" height="20" as="geometry"/>
                </mxCell>
                <mxCell id="FerQvgeqPSbu73l90yjI-29" value="OUT" style="text;html=1;strokeColor=none;fillColor=none;align=center;verticalAlign=middle;whiteSpace=wrap;rounded=0;" vertex="1" parent="1">
                    <mxGeometry x="390" y="330" width="16" height="20" as="geometry"/>
                </mxCell>
                <mxCell id="FerQvgeqPSbu73l90yjI-30" value="OUT" style="text;html=1;strokeColor=none;fillColor=none;align=center;verticalAlign=middle;whiteSpace=wrap;rounded=0;" vertex="1" parent="1">
                    <mxGeometry x="578" y="330" width="16" height="20" as="geometry"/>
                </mxCell>
                <mxCell id="FerQvgeqPSbu73l90yjI-31" value="OUT" style="text;html=1;strokeColor=none;fillColor=none;align=center;verticalAlign=middle;whiteSpace=wrap;rounded=0;" vertex="1" parent="1">
                    <mxGeometry x="546" y="330" width="16" height="20" as="geometry"/>
                </mxCell>
                <mxCell id="FerQvgeqPSbu73l90yjI-32" value="OUT" style="text;html=1;strokeColor=none;fillColor=none;align=center;verticalAlign=middle;whiteSpace=wrap;rounded=0;" vertex="1" parent="1">
                    <mxGeometry x="728" y="330" width="16" height="20" as="geometry"/>
                </mxCell>
                <mxCell id="FerQvgeqPSbu73l90yjI-33" value="OUT" style="text;html=1;strokeColor=none;fillColor=none;align=center;verticalAlign=middle;whiteSpace=wrap;rounded=0;" vertex="1" parent="1">
                    <mxGeometry x="696" y="330" width="16" height="20" as="geometry"/>
                </mxCell>
                <mxCell id="FerQvgeqPSbu73l90yjI-34" value="L" style="text;html=1;strokeColor=none;fillColor=none;align=center;verticalAlign=middle;whiteSpace=wrap;rounded=0;" vertex="1" parent="1">
                    <mxGeometry x="96" y="230" width="16" height="20" as="geometry"/>
                </mxCell>
                <mxCell id="FerQvgeqPSbu73l90yjI-54" style="edgeStyle=none;rounded=0;orthogonalLoop=1;jettySize=auto;html=1;exitX=0.5;exitY=0;exitDx=0;exitDy=0;strokeColor=none;" edge="1" parent="1">
                    <mxGeometry relative="1" as="geometry">
                        <mxPoint x="137.44444444444446" y="107" as="targetPoint"/>
                        <mxPoint x="137" y="227" as="sourcePoint"/>
                    </mxGeometry>
                </mxCell>
                <mxCell id="FerQvgeqPSbu73l90yjI-35" value="N" style="text;html=1;strokeColor=none;fillColor=none;align=center;verticalAlign=middle;whiteSpace=wrap;rounded=0;" vertex="1" parent="1">
                    <mxGeometry x="128" y="230" width="16" height="20" as="geometry"/>
                </mxCell>
                <mxCell id="FerQvgeqPSbu73l90yjI-36" value="N" style="text;html=1;strokeColor=none;fillColor=none;align=center;verticalAlign=middle;whiteSpace=wrap;rounded=0;" vertex="1" parent="1">
                    <mxGeometry x="284" y="227" width="16" height="20" as="geometry"/>
                </mxCell>
                <mxCell id="FerQvgeqPSbu73l90yjI-37" value="L" style="text;html=1;strokeColor=none;fillColor=none;align=center;verticalAlign=middle;whiteSpace=wrap;rounded=0;" vertex="1" parent="1">
                    <mxGeometry x="250" y="227" width="16" height="20" as="geometry"/>
                </mxCell>
                <mxCell id="FerQvgeqPSbu73l90yjI-38" value="N" style="text;html=1;strokeColor=none;fillColor=none;align=center;verticalAlign=middle;whiteSpace=wrap;rounded=0;" vertex="1" parent="1">
                    <mxGeometry x="424" y="227" width="16" height="20" as="geometry"/>
                </mxCell>
                <mxCell id="FerQvgeqPSbu73l90yjI-39" value="L" style="text;html=1;strokeColor=none;fillColor=none;align=center;verticalAlign=middle;whiteSpace=wrap;rounded=0;" vertex="1" parent="1">
                    <mxGeometry x="392" y="227" width="16" height="20" as="geometry"/>
                </mxCell>
                <mxCell id="FerQvgeqPSbu73l90yjI-40" value="N" style="text;html=1;strokeColor=none;fillColor=none;align=center;verticalAlign=middle;whiteSpace=wrap;rounded=0;" vertex="1" parent="1">
                    <mxGeometry x="581" y="227" width="16" height="20" as="geometry"/>
                </mxCell>
                <mxCell id="FerQvgeqPSbu73l90yjI-41" value="L" style="text;html=1;strokeColor=none;fillColor=none;align=center;verticalAlign=middle;whiteSpace=wrap;rounded=0;" vertex="1" parent="1">
                    <mxGeometry x="546" y="227" width="16" height="20" as="geometry"/>
                </mxCell>
                <mxCell id="FerQvgeqPSbu73l90yjI-50" style="rounded=0;orthogonalLoop=1;jettySize=auto;html=1;exitX=0.5;exitY=0;exitDx=0;exitDy=0;strokeColor=#006600;" edge="1" parent="1" source="FerQvgeqPSbu73l90yjI-42">
                    <mxGeometry relative="1" as="geometry">
                        <mxPoint x="738" y="90" as="targetPoint"/>
                    </mxGeometry>
                </mxCell>
                <mxCell id="FerQvgeqPSbu73l90yjI-42" value="N" style="text;html=1;strokeColor=none;fillColor=none;align=center;verticalAlign=middle;whiteSpace=wrap;rounded=0;" vertex="1" parent="1">
                    <mxGeometry x="730" y="227" width="16" height="20" as="geometry"/>
                </mxCell>
                <mxCell id="FerQvgeqPSbu73l90yjI-49" style="edgeStyle=none;rounded=0;orthogonalLoop=1;jettySize=auto;html=1;exitX=0.5;exitY=0;exitDx=0;exitDy=0;strokeColor=#006600;" edge="1" parent="1" source="FerQvgeqPSbu73l90yjI-43">
                    <mxGeometry relative="1" as="geometry">
                        <mxPoint x="704" y="90" as="targetPoint"/>
                    </mxGeometry>
                </mxCell>
                <mxCell id="FerQvgeqPSbu73l90yjI-43" value="L" style="text;html=1;strokeColor=none;fillColor=none;align=center;verticalAlign=middle;whiteSpace=wrap;rounded=0;" vertex="1" parent="1">
                    <mxGeometry x="696" y="227" width="16" height="20" as="geometry"/>
                </mxCell>
                <mxCell id="FerQvgeqPSbu73l90yjI-46" value="Salida Vivienda" style="text;html=1;strokeColor=none;fillColor=none;align=center;verticalAlign=middle;whiteSpace=wrap;rounded=0;" vertex="1" parent="1">
                    <mxGeometry x="700" y="65" width="40" height="20" as="geometry"/>
                </mxCell>
                <mxCell id="FerQvgeqPSbu73l90yjI-51" value="Salida Exterior Derecha" style="text;html=1;strokeColor=none;fillColor=none;align=center;verticalAlign=middle;whiteSpace=wrap;rounded=0;" vertex="1" parent="1">
                    <mxGeometry x="100" y="71" width="40" height="20" as="geometry"/>
                </mxCell>
                <mxCell id="FerQvgeqPSbu73l90yjI-56" style="edgeStyle=none;rounded=0;orthogonalLoop=1;jettySize=auto;html=1;exitX=0.5;exitY=0;exitDx=0;exitDy=0;strokeColor=none;" edge="1" parent="1">
                    <mxGeometry relative="1" as="geometry">
                        <mxPoint x="102.88444444444434" y="106" as="targetPoint"/>
                        <mxPoint x="102.44" y="226" as="sourcePoint"/>
                    </mxGeometry>
                </mxCell>
                <mxCell id="FerQvgeqPSbu73l90yjI-65" value="Salida Exterior Izquierda" style="text;html=1;strokeColor=none;fillColor=none;align=center;verticalAlign=middle;whiteSpace=wrap;rounded=0;" vertex="1" parent="1">
                    <mxGeometry x="254" y="70" width="40" height="23" as="geometry"/>
                </mxCell>
                <mxCell id="FerQvgeqPSbu73l90yjI-66" style="edgeStyle=none;rounded=0;orthogonalLoop=1;jettySize=auto;html=1;exitX=0.5;exitY=0;exitDx=0;exitDy=0;strokeColor=none;" edge="1" parent="1">
                    <mxGeometry relative="1" as="geometry">
                        <mxPoint x="256.8844444444444" y="106" as="targetPoint"/>
                        <mxPoint x="256.44000000000005" y="226" as="sourcePoint"/>
                    </mxGeometry>
                </mxCell>
                <mxCell id="FerQvgeqPSbu73l90yjI-68" style="edgeStyle=none;rounded=0;orthogonalLoop=1;jettySize=auto;html=1;exitX=0.5;exitY=0;exitDx=0;exitDy=0;strokeColor=none;" edge="1" parent="1">
                    <mxGeometry relative="1" as="geometry">
                        <mxPoint x="291.44444444444434" y="107" as="targetPoint"/>
                        <mxPoint x="291" y="227" as="sourcePoint"/>
                    </mxGeometry>
                </mxCell>
                <mxCell id="FerQvgeqPSbu73l90yjI-71" style="edgeStyle=none;rounded=0;orthogonalLoop=1;jettySize=auto;html=1;exitX=0.5;exitY=0;exitDx=0;exitDy=0;strokeColor=#006600;" edge="1" parent="1">
                    <mxGeometry relative="1" as="geometry">
                        <mxPoint x="396.8844444444444" y="106" as="targetPoint"/>
                        <mxPoint x="396.44000000000005" y="226" as="sourcePoint"/>
                    </mxGeometry>
                </mxCell>
                <mxCell id="FerQvgeqPSbu73l90yjI-84" value="//" style="edgeLabel;html=1;align=center;verticalAlign=middle;resizable=0;points=[];" vertex="1" connectable="0" parent="FerQvgeqPSbu73l90yjI-71">
                    <mxGeometry x="0.2517" y="2" relative="1" as="geometry">
                        <mxPoint x="3" y="-1" as="offset"/>
                    </mxGeometry>
                </mxCell>
                <mxCell id="FerQvgeqPSbu73l90yjI-73" style="edgeStyle=none;rounded=0;orthogonalLoop=1;jettySize=auto;html=1;exitX=0.5;exitY=0;exitDx=0;exitDy=0;strokeColor=#FFFF00;" edge="1" parent="1">
                    <mxGeometry relative="1" as="geometry">
                        <mxPoint x="431.44444444444434" y="107" as="targetPoint"/>
                        <mxPoint x="431" y="227" as="sourcePoint"/>
                    </mxGeometry>
                </mxCell>
                <mxCell id="FerQvgeqPSbu73l90yjI-85" value="//" style="edgeLabel;html=1;align=center;verticalAlign=middle;resizable=0;points=[];" vertex="1" connectable="0" parent="FerQvgeqPSbu73l90yjI-73">
                    <mxGeometry x="0.2499" y="1" relative="1" as="geometry">
                        <mxPoint x="1" y="-2" as="offset"/>
                    </mxGeometry>
                </mxCell>
                <mxCell id="FerQvgeqPSbu73l90yjI-75" style="edgeStyle=none;rounded=0;orthogonalLoop=1;jettySize=auto;html=1;exitX=0.5;exitY=0;exitDx=0;exitDy=0;strokeColor=#000000;" edge="1" parent="1">
                    <mxGeometry relative="1" as="geometry">
                        <mxPoint x="291.16444444444437" y="107" as="targetPoint"/>
                        <mxPoint x="290.72" y="227" as="sourcePoint"/>
                    </mxGeometry>
                </mxCell>
                <mxCell id="FerQvgeqPSbu73l90yjI-76" style="edgeStyle=none;rounded=0;orthogonalLoop=1;jettySize=auto;html=1;exitX=0.5;exitY=0;exitDx=0;exitDy=0;strokeColor=#000000;" edge="1" parent="1">
                    <mxGeometry relative="1" as="geometry">
                        <mxPoint x="256.6044444444444" y="106" as="targetPoint"/>
                        <mxPoint x="256.1600000000001" y="226" as="sourcePoint"/>
                    </mxGeometry>
                </mxCell>
                <mxCell id="FerQvgeqPSbu73l90yjI-77" style="edgeStyle=none;rounded=0;orthogonalLoop=1;jettySize=auto;html=1;exitX=0.5;exitY=0;exitDx=0;exitDy=0;strokeColor=#000000;" edge="1" parent="1">
                    <mxGeometry relative="1" as="geometry">
                        <mxPoint x="137.16444444444437" y="107" as="targetPoint"/>
                        <mxPoint x="136.72000000000003" y="227" as="sourcePoint"/>
                    </mxGeometry>
                </mxCell>
                <mxCell id="FerQvgeqPSbu73l90yjI-78" style="rounded=0;orthogonalLoop=1;jettySize=auto;html=1;exitX=0.5;exitY=0;exitDx=0;exitDy=0;strokeColor=#000000;" edge="1" parent="1">
                    <mxGeometry relative="1" as="geometry">
                        <mxPoint x="103.88444444444443" y="106" as="targetPoint"/>
                        <mxPoint x="103.44000000000008" y="226" as="sourcePoint"/>
                    </mxGeometry>
                </mxCell>
                <mxCell id="FerQvgeqPSbu73l90yjI-79" style="edgeStyle=none;rounded=0;orthogonalLoop=1;jettySize=auto;html=1;exitX=0.5;exitY=0;exitDx=0;exitDy=0;strokeColor=#FFFF00;" edge="1" parent="1">
                    <mxGeometry relative="1" as="geometry">
                        <mxPoint x="587.4444444444443" y="107" as="targetPoint"/>
                        <mxPoint x="587" y="227" as="sourcePoint"/>
                    </mxGeometry>
                </mxCell>
                <mxCell id="FerQvgeqPSbu73l90yjI-87" value="///" style="edgeLabel;html=1;align=center;verticalAlign=middle;resizable=0;points=[];" vertex="1" connectable="0" parent="FerQvgeqPSbu73l90yjI-79">
                    <mxGeometry x="0.3239" y="1" relative="1" as="geometry">
                        <mxPoint x="2" y="-1" as="offset"/>
                    </mxGeometry>
                </mxCell>
                <mxCell id="FerQvgeqPSbu73l90yjI-80" style="edgeStyle=none;rounded=0;orthogonalLoop=1;jettySize=auto;html=1;exitX=0.5;exitY=0;exitDx=0;exitDy=0;strokeColor=#006600;" edge="1" parent="1">
                    <mxGeometry relative="1" as="geometry">
                        <mxPoint x="552.8844444444444" y="106" as="targetPoint"/>
                        <mxPoint x="552.44" y="226" as="sourcePoint"/>
                    </mxGeometry>
                </mxCell>
                <mxCell id="FerQvgeqPSbu73l90yjI-86" value="///" style="edgeLabel;html=1;align=center;verticalAlign=middle;resizable=0;points=[];" vertex="1" connectable="0" parent="FerQvgeqPSbu73l90yjI-80">
                    <mxGeometry x="0.2888" y="1" relative="1" as="geometry">
                        <mxPoint x="2" as="offset"/>
                    </mxGeometry>
                </mxCell>
                <mxCell id="FerQvgeqPSbu73l90yjI-92" value="" style="endArrow=none;html=1;strokeColor=#000000;" edge="1" parent="1">
                    <mxGeometry width="50" height="50" relative="1" as="geometry">
                        <mxPoint x="102" y="160" as="sourcePoint"/>
                        <mxPoint x="400" y="160" as="targetPoint"/>
                    </mxGeometry>
                </mxCell>
                <mxCell id="FerQvgeqPSbu73l90yjI-103" value="" style="ellipse;html=1;verticalLabelPosition=bottom;labelBackgroundColor=#ffffff;verticalAlign=top;fillColor=#000000;strokeColor=#006600;" vertex="1" parent="1">
                    <mxGeometry x="60" y="120" width="10" height="10" as="geometry"/>
                </mxCell>
            </root>
        </mxGraphModel>
    </diagram>
</mxfile>